<svg width="986" height="852" viewBox="0 0 986 852" fill="none" xmlns="http://www.w3.org/2000/svg">
<rect width="986" height="852" fill="none"/>
<g filter="url(#filter0_d_0_1)">
<rect x="8" width="969.742" height="836.566" fill="none"/>
<rect x="8.93785" y="0.937855" width="967.866" height="834.691" />
<!-- stroke="black" stroke-width="1.87571" -->
<path d="M814.524 479.783C814.524 629.685 687.193 751.283 530.024 751.283C372.854 751.283 245.524 629.685 245.524 479.783C245.524 329.881 372.854 208.283 530.024 208.283C687.193 208.283 814.524 329.881 814.524 479.783Z" fill="#FFD600" stroke="black" stroke-width="2"/>
<path d="M706.524 479.783C706.524 572.8 627.546 648.283 530.024 648.283C432.502 648.283 353.524 572.8 353.524 479.783C353.524 386.766 432.502 311.283 530.024 311.283C627.546 311.283 706.524 386.766 706.524 479.783Z" fill="#FF9466" stroke="black" stroke-width="2"/>
<path d="M294.127 253.026C294.127 248.125 295.89 243.389 299.095 239.681V239.681C311.457 225.38 334.939 234.123 334.939 253.026V380.405C334.939 391.675 325.803 400.812 314.533 400.812V400.812C303.263 400.812 294.127 391.675 294.127 380.405V253.026Z" fill="#66E0FF"/>
<path d="M304.705 233.257L187.501 369.744C176.239 382.858 185.758 400.782 203.972 400.76C211.836 400.751 219.369 397.154 223.852 391.268L258.702 345.515L331.93 249.377C333.889 246.805 334.938 243.818 334.938 240.813C334.938 226.778 314.628 221.702 304.705 233.257Z" fill="#00CCFF"/>
<path d="M272.192 545.402C274.93 541.384 273.743 535.817 269.06 533.938C262.686 531.381 255.79 530.216 248.882 530.581C238.925 531.106 229.495 534.779 222.04 541.035C214.586 547.291 209.52 555.783 207.623 565.206C205.727 574.628 207.103 584.459 211.541 593.187C215.979 601.914 223.233 609.055 232.187 613.51C241.141 617.966 251.3 619.49 261.101 617.847C270.901 616.205 279.801 611.488 286.431 604.42C291.031 599.517 294.362 593.671 296.219 587.347C297.583 582.7 293.729 578.353 288.71 577.886C283.691 577.419 279.452 581.079 277.456 585.496C276.311 588.031 274.745 590.382 272.802 592.453C268.824 596.694 263.484 599.524 257.604 600.51C251.724 601.495 245.628 600.581 240.256 597.907C234.883 595.234 230.531 590.95 227.868 585.713C225.205 580.477 224.38 574.578 225.518 568.925C226.656 563.271 229.695 558.176 234.168 554.422C238.64 550.669 244.299 548.465 250.273 548.15C253.191 547.996 256.105 548.296 258.909 549.023C263.796 550.29 269.453 549.42 272.192 545.402Z" fill="#66E0FF"/>
<path d="M272.192 545.403C274.931 541.385 273.744 535.818 269.061 533.939C265.164 532.375 261.061 531.327 256.864 530.836C249.631 529.99 242.331 530.823 235.574 533.264C228.817 535.706 222.798 539.686 218.021 544.872C213.243 550.058 209.845 556.299 208.11 563.075C206.376 569.85 206.355 576.964 208.049 583.821C209.744 590.679 213.105 597.081 217.851 602.494C222.598 607.906 228.592 612.173 235.334 614.936C239.246 616.539 243.344 617.61 247.508 618.128C252.513 618.75 256.226 614.449 255.757 609.603C255.288 604.757 250.75 601.254 245.861 599.996C244.599 599.671 243.356 599.26 242.144 598.763C238.099 597.105 234.502 594.545 231.654 591.297C228.806 588.05 226.79 584.208 225.773 580.094C224.757 575.979 224.769 571.711 225.81 567.646C226.851 563.581 228.889 559.836 231.756 556.724C234.623 553.613 238.234 551.225 242.288 549.76C246.342 548.295 250.722 547.795 255.062 548.303C256.363 548.455 257.648 548.696 258.91 549.023C263.796 550.29 269.454 549.421 272.192 545.403Z" fill="#00CCFF"/>
<rect width="457.072" height="71.7123" transform="matrix(0.999948 -0.0102052 0.0112511 0.999937 294.134 680.527)" fill="#563030"/>
<path d="M447.008 288.425L438.709 283.201L423.236 212.011L595.762 203.563C595.34 222.005 594.569 261.705 594.865 272.974C584.304 285.152 550.433 290.297 501.411 288.212C481.904 291.279 456.919 286.02 446.865 283.007L447.008 288.425Z" fill="#0C0118"/>
<path d="M478.93 312.683L477.962 275.843L550.008 274.125L550.977 310.966L578.42 320.07L500.972 375.043L453.358 323.051L478.93 312.683Z" fill="#FEA19A"/>
<path d="M478.814 308.267L477.96 275.761L550.063 276.211C548.827 280.938 550.405 289.213 550.519 293.547C546.214 295.385 500.922 304.126 478.814 308.267Z" fill="#FF968F"/>
<g filter="url(#filter1_d_0_1)">
<path d="M513.621 286.999C458.136 287.454 434.044 243.72 428.934 221.795C430.659 201.154 434.318 157.481 435.154 147.92C436.201 135.969 457.609 122.448 486.156 121.767C517.364 118.855 564.693 160.012 575.966 174.922C584.985 186.851 589.812 218.684 591.097 233.11L584.301 233.272C581.753 239.838 574.822 255.616 567.483 266.199C551.626 283.925 527.215 286.675 513.621 286.999Z" fill="#FEA19A"/>
</g>
<path d="M467.528 189.353C464.809 189.418 454.492 193.639 450.027 196.275C451.159 187.574 461.92 182.981 470.076 182.787C480.951 182.527 488.004 192.118 486.645 192.15C485.285 192.182 475.684 189.158 467.528 189.353Z" fill="#0C0005"/>
<path d="M467.898 203.439C466.856 205.198 462.674 211.687 461.4 214.97C461.739 210.625 463.749 200.819 469.072 196.354C475.506 192.732 480.232 206.931 481.791 214.483C481.3 213.049 478.395 209.477 476.083 204.328C471.834 197.924 469.201 201.239 467.898 203.439Z" fill="#3B0000"/>
<path d="M543.596 185.371C540.877 185.436 530.56 189.658 526.095 192.294C527.226 183.593 537.987 179 546.144 178.805C557.019 178.546 564.072 188.136 562.712 188.169C561.353 188.201 551.752 185.177 543.596 185.371Z" fill="#0C0005"/>
<path d="M543.966 199.457C542.924 201.217 538.742 207.705 537.468 210.988C537.807 206.643 539.816 196.837 545.14 192.373C551.574 188.75 556.3 202.949 557.858 210.501C557.367 209.068 554.462 205.496 552.15 200.347C547.902 193.943 545.268 197.258 543.966 199.457Z" fill="#3B0000"/>
<path d="M435.069 299.962L422.815 299.5L428.101 293.622L420.059 298.151L400.894 293.517L406.181 287.639L393.946 287.931L376.055 280.014L390.487 259.824C387.472 231.344 381.928 172.206 383.875 163.485C386.309 152.585 386.77 135.167 405.931 122.843C424.658 110.799 461.494 115.014 462.882 116.065C477.922 67.2467 528.6 80.5592 560.329 97.4792C604.223 120.886 615.24 151.105 617.942 167.665C620.372 191.098 624.778 241.446 622.967 255.367C619.118 274.541 597.483 286.333 587.147 289.832L581.617 234.668L589.716 232.307C581.443 207.35 562.911 195.721 554.678 193.026C561.656 199.726 576.188 214.414 578.499 219.563C574.364 217.494 552.102 198.508 530.971 170.822C509.841 143.136 497.379 134.759 489.165 132.786C480.952 130.814 462.092 137.769 451.359 143.446C436.408 154.21 438.611 244.944 441.581 288.965L435.069 299.962Z" fill="#0F1342"/>
<path d="M409.364 199.413C408.003 189.037 422.441 181.754 428.063 183.788C432.299 194.53 430.487 216.474 431.825 225.983C412.677 224.271 411.065 212.383 409.364 199.413Z" fill="#F39095"/>
<g filter="url(#filter2_d_0_1)">
<path d="M416.043 197.085C415.949 193.523 422.701 189.337 425.599 196.086C428.007 201.692 427.328 210.139 427.414 213.39C426.999 214.845 423.458 220.45 420.634 216.492" stroke="#E4676D"/>
</g>
<path d="M521.597 228.18L507.348 203.583L528.479 231.269L514.971 234.844L521.597 228.18Z" fill="#C05A56"/>
<path d="M504.665 256.774C504.665 256.774 495.546 254.823 492.346 253.815C492.365 254.537 494.487 256.841 503.363 258.973C511.576 260.946 521.092 260.719 526.472 258.422L531.824 255.042L538.507 250.546C537.157 250.94 528.808 254.466 526.387 255.172C518.287 257.533 504.665 256.774 504.665 256.774Z" fill="#D26A67"/>
<g filter="url(#filter3_d_0_1)">
<path d="M334.886 680.333L358.066 371.861C373.612 359.564 409.014 333.35 426.254 326.867C432.962 333.646 472.729 404.546 491.775 439.149L543.431 437.918L603.086 326.989C620.022 333.091 656.121 347.193 665.026 354.787C670.834 368.744 724.675 398.903 718.156 564.945C701.657 571.148 684.612 575.992 667.604 579.743L680.165 672.104L334.886 680.333Z" fill="white"/>
</g>
<path d="M388.235 432.943L354.101 376.293L326.73 680.527L394.698 678.908C394.271 662.654 394.617 624.048 399.416 599.647C405.416 569.146 404.391 530.138 389.943 497.956C349.023 472.909 371.754 444.178 388.235 432.943Z" fill="#EAEAEA"/>
<path d="M652.216 488.452L424.604 678.195L681.524 672.072L652.216 488.452Z" fill="#EAEAEA"/>
<path d="M622.316 334.121L603.086 326.989L529.132 463.196L589.592 434.649L565.857 411.362L609.413 412.492L622.316 334.121Z" fill="white" stroke="#E1E1E1"/>
<path d="M465.591 322.677L426.283 327.951L493.219 442.367L539.438 441.266L605.833 328.008L572.781 312.533L512.862 361.667L465.591 322.677Z" fill="#5A4DEB"/>
<path d="M407.508 338.156C398.73 349.207 382.79 381.03 380.527 398.431C378.264 415.833 383.808 464.491 393.494 470.765" stroke="black" stroke-width="2"/>
<ellipse cx="16.317" cy="13.007" rx="16.317" ry="13.007" transform="matrix(0.999716 -0.0238265 0.026267 0.999655 386.342 464.43)" fill="#D9D9D9"/>
<ellipse cx="8.15851" cy="6.50351" rx="8.15851" ry="6.50351" transform="matrix(0.999716 -0.0238265 0.026267 0.999655 394.669 470.737)" fill="#EEE5E5"/>
<path d="M426.254 326.867L404.789 338.221L416.326 414.926L463.676 405.123L445.385 433.749L507.468 466.965L426.254 326.867Z" fill="white" stroke="#E1E1E1"/>
<path d="M635.943 469.324C629.374 478.154 633.453 478.057 638.833 475.76C638.931 475.758 639.028 475.755 639.126 475.75C639.424 473.576 639.206 469.246 635.943 469.324Z" fill="#B4B4B4"/>
<path d="M616.941 470.861C623.397 468.105 626.57 474.968 622.549 477.233C618.471 477.33 620.41 475.298 618.867 474.068C617.412 472.908 616.435 471.715 616.941 470.861Z" fill="#B4B4B4"/>
<path d="M659.216 423.232C659.669 440.471 656.272 474.955 639.126 475.75M639.126 475.75C639.028 475.755 638.931 475.758 638.833 475.76C633.453 478.057 629.374 478.154 635.943 469.324C639.206 469.246 639.424 473.576 639.126 475.75ZM618.867 474.068C617.412 472.908 616.435 471.715 616.941 470.861C623.397 468.105 626.57 474.968 622.549 477.233C618.471 477.33 620.41 475.298 618.867 474.068ZM618.867 474.068C611.032 475.339 595.106 468.129 594.081 429.121" stroke="#B7B7B7" stroke-width="0.8"/>
<path d="M584.437 320.929C597.21 323.877 622.915 335.841 623.552 360.113M623.552 360.113C597.838 365.062 572.352 378.681 594.166 432.372M623.552 360.113C639.431 360.457 668.799 373.78 659.245 424.315" stroke="black" stroke-width="2"/>
<path d="M439.763 323.292L458.537 313.087L512.891 362.75L574.084 310.333L598.808 319.502L543.566 391.293L512.891 362.75L479.619 390.649L439.763 323.292Z" fill="#5991FF"/>
<path d="M441.251 638.766L418.597 449.567L600.552 437.641L619.157 628.021L441.251 638.766Z" fill="#6A6E9B"/>
<path d="M474.501 454.74L474.131 440.654L552.804 432.273L553.231 448.526L474.501 454.74Z" fill="#D7D7D5"/>
<g filter="url(#filter4_d_0_1)">
<path d="M645.988 510.285L654.82 484.053L714.633 482.628C721.999 504.136 720.419 547.543 716.853 567.144C699.955 586.629 556.885 587.581 487.462 585.622L485.925 527.11L645.988 510.285Z" fill="white"/>
</g>
<path d="M434.909 580.574L478.409 579.538L477.469 543.781L467.953 544.008C464.243 540.843 455.18 534.12 448.609 532.542C442.039 530.964 449.724 540.466 454.388 545.415C450.773 545.863 442.182 546.79 434.055 548.068C425.984 551.513 432.838 553.518 432.952 557.852C426.183 559.098 431.735 563.303 433.151 565.437C429.073 565.534 428.019 566.86 434.681 571.906C427.069 572.087 431.661 577.76 434.909 580.574Z" fill="#FCA39D"/>
<path d="M469.897 538.335L491.647 537.816L492.786 581.158L476.473 581.547L469.897 538.335Z" fill="#5A4DEB"/>
<path d="M289.73 441.347C295.76 449.173 292.705 461.081 282.91 467.927C273.115 474.773 260.272 473.978 254.241 466.152L247.143 471.114C254.856 481.123 270.455 482.871 283.557 475.852L290.286 484.585L297.384 479.624L290.654 470.89C301.614 461.092 304.541 446.395 296.828 436.386L289.73 441.347V441.347Z" fill="#007AFF"/>
<path d="M278.54 462.256C284.432 458.138 286.259 451.015 282.632 446.308L269.522 429.296C265.895 424.589 258.212 424.113 252.321 428.231C246.429 432.349 244.602 439.472 248.229 444.179L261.339 461.191C264.966 465.898 272.649 466.374 278.54 462.256ZM255.327 439.218C254.125 437.658 254.739 435.266 256.691 433.902C258.642 432.538 261.223 432.697 262.424 434.257L275.534 451.269C276.736 452.829 276.122 455.221 274.17 456.585C272.219 457.95 269.638 457.79 268.437 456.23L255.327 439.218Z" fill="#007AFF"/>
<path d="M278.54 462.256C284.432 458.138 286.259 451.015 282.632 446.308L269.522 429.296C265.895 424.589 258.212 424.113 252.321 428.231C246.429 432.349 244.602 439.472 248.229 444.179L261.339 461.191C264.966 465.898 272.649 466.374 278.54 462.256Z" fill="#007AFF"/>
<rect x="733.524" y="452.283" width="60" height="56" rx="28" fill="#007AFF"/>
<rect x="748.524" y="471.533" width="7.5" height="17.5" rx="3.75" fill="white"/>
<rect x="759.774" y="466.283" width="7.5" height="28" rx="3.75" fill="white"/>
<rect x="771.024" y="471.533" width="7.5" height="17.5" rx="3.75" fill="white"/>
<g filter="url(#filter5_d_0_1)">
<path d="M739.386 553.971C740.811 555.034 742.536 556.164 744.314 557.213C748.778 559.848 754.327 562.399 760.075 563.676L758.221 566.702C753.463 565.397 747.472 563.086 742.455 560.07C740.925 559.167 739.174 558.077 737.671 557.134L739.386 553.971ZM758.328 556.074C756.508 557.728 753.179 560.998 750.328 563.269C744.574 567.891 736.007 572.969 729.643 575.45L727.508 571.962C733.909 569.949 742.414 565.057 747.198 561.31C749.756 559.312 752.97 556.308 754.926 553.565L758.328 556.074ZM759.994 574.264C758.797 575.84 758.011 577.047 757.11 578.52C755.491 581.184 751.884 587.519 750.156 590.174C748.062 593.392 744.252 594.763 739.126 591.738C734.579 589.054 732.052 585.112 734.67 581.089C737.079 577.388 742.193 577.177 746.823 579.91C753.768 584.008 756.901 590.535 758.432 595.392L754.915 597.103C753.565 592.409 751.141 586.022 745.065 582.436C742.006 580.63 739.049 580.778 737.845 582.629C736.64 584.48 737.415 586.719 740.639 588.622C744.07 590.647 746.379 589.56 747.793 587.387C749.783 584.329 754.014 576.859 756.729 572.336L759.994 574.264ZM767.581 580.189C766.553 577.021 763.644 571.908 761.728 569.05L764.952 567.612C767.158 570.64 770.127 576.012 771.169 578.632L767.581 580.189Z" fill="#D26A67"/>
</g>
<rect width="21.1527" height="93.0721" rx="10.5764" transform="matrix(0.955235 -0.29585 0.32314 0.946351 650.332 273.636)" fill="#00CCFF"/>
<circle cx="22.2104" cy="22.2104" r="22.2104" transform="matrix(0.955235 -0.29585 0.32314 0.946351 660.435 270.506)" fill="#66E0FF"/>
<circle cx="22.2104" cy="22.2104" r="22.2104" transform="matrix(0.955235 -0.29585 0.32314 0.946351 674.789 312.544)" fill="#66E0FF"/>
<path d="M684.857 223.104C685.743 222.691 686.631 222.656 687.522 222.996C688.432 223.281 689.102 223.843 689.533 224.681C689.963 225.52 690.017 226.368 689.694 227.227C689.409 228.068 688.824 228.695 687.938 229.107C687.051 229.52 686.172 229.575 685.301 229.272C684.468 228.951 683.837 228.372 683.406 227.533C682.956 226.657 682.874 225.798 683.158 224.957C683.443 224.116 684.009 223.499 684.857 223.104ZM647.15 223.445L682.928 206.789L684.894 210.62L673.45 215.947L677.881 224.581L667.824 229.262C666.436 229.908 665.427 230.732 664.796 231.734C664.164 232.737 664.172 233.867 664.817 235.124C665.482 236.42 666.549 237.104 668.018 237.176C669.468 237.209 671.676 236.63 674.645 235.437C681.678 232.399 686.496 233.414 689.098 238.484C690.409 241.132 690.426 243.768 689.148 246.394C687.908 249.001 685.496 251.139 681.913 252.808C677.79 254.727 673.699 255.592 669.64 255.404L667.381 251.002C671.886 251.502 676.084 250.846 679.976 249.034C682.173 248.012 683.682 246.766 684.503 245.298C685.325 243.829 685.325 242.294 684.503 240.693C683.779 239.283 682.673 238.523 681.185 238.413C679.696 238.303 677.574 238.819 674.818 239.96C667.572 242.956 662.735 242.091 660.31 237.364C659.058 234.925 658.966 232.654 660.035 230.551C661.104 228.448 662.987 226.768 665.684 225.512L671.406 222.849L668.941 218.046L649.116 227.275L647.15 223.445Z" fill="#D26A67"/>
</g>
<defs>
<filter id="filter0_d_0_1" x="0.497164" y="0" width="984.747" height="851.572" filterUnits="userSpaceOnUse" color-interpolation-filters="sRGB">
<feFlood flood-opacity="0" result="BackgroundImageFix"/>
<feColorMatrix in="SourceAlpha" type="matrix" values="0 0 0 0 0 0 0 0 0 0 0 0 0 0 0 0 0 0 127 0" result="hardAlpha"/>
<feOffset dy="7.50284"/>
<feGaussianBlur stdDeviation="3.75142"/>
<feComposite in2="hardAlpha" operator="out"/>
<feColorMatrix type="matrix" values="0 0 0 0 0 0 0 0 0 0 0 0 0 0 0 0 0 0 0.25 0"/>
<feBlend mode="normal" in2="BackgroundImageFix" result="effect1_dropShadow_0_1"/>
<feBlend mode="normal" in="SourceGraphic" in2="effect1_dropShadow_0_1" result="shape"/>
</filter>
<filter id="filter1_d_0_1" x="420.934" y="110.62" width="178.163" height="181.382" filterUnits="userSpaceOnUse" color-interpolation-filters="sRGB">
<feFlood flood-opacity="0" result="BackgroundImageFix"/>
<feColorMatrix in="SourceAlpha" type="matrix" values="0 0 0 0 0 0 0 0 0 0 0 0 0 0 0 0 0 0 127 0" result="hardAlpha"/>
<feOffset dy="-3"/>
<feGaussianBlur stdDeviation="4"/>
<feComposite in2="hardAlpha" operator="out"/>
<feColorMatrix type="matrix" values="0 0 0 0 0 0 0 0 0 0 0 0 0 0 0 0 0 0 0.25 0"/>
<feBlend mode="normal" in2="BackgroundImageFix" result="effect1_dropShadow_0_1"/>
<feBlend mode="normal" in="SourceGraphic" in2="effect1_dropShadow_0_1" result="shape"/>
</filter>
<filter id="filter2_d_0_1" x="413.542" y="190.994" width="16.3984" height="30.3883" filterUnits="userSpaceOnUse" color-interpolation-filters="sRGB">
<feFlood flood-opacity="0" result="BackgroundImageFix"/>
<feColorMatrix in="SourceAlpha" type="matrix" values="0 0 0 0 0 0 0 0 0 0 0 0 0 0 0 0 0 0 127 0" result="hardAlpha"/>
<feOffset dy="1"/>
<feGaussianBlur stdDeviation="1"/>
<feComposite in2="hardAlpha" operator="out"/>
<feColorMatrix type="matrix" values="0 0 0 0 0 0 0 0 0 0 0 0 0 0 0 0 0 0 0.25 0"/>
<feBlend mode="normal" in2="BackgroundImageFix" result="effect1_dropShadow_0_1"/>
<feBlend mode="normal" in="SourceGraphic" in2="effect1_dropShadow_0_1" result="shape"/>
</filter>
<filter id="filter3_d_0_1" x="330.886" y="326.867" width="391.816" height="361.466" filterUnits="userSpaceOnUse" color-interpolation-filters="sRGB">
<feFlood flood-opacity="0" result="BackgroundImageFix"/>
<feColorMatrix in="SourceAlpha" type="matrix" values="0 0 0 0 0 0 0 0 0 0 0 0 0 0 0 0 0 0 127 0" result="hardAlpha"/>
<feOffset dy="4"/>
<feGaussianBlur stdDeviation="2"/>
<feComposite in2="hardAlpha" operator="out"/>
<feColorMatrix type="matrix" values="0 0 0 0 0 0 0 0 0 0 0 0 0 0 0 0 0 0 0.25 0"/>
<feBlend mode="normal" in2="BackgroundImageFix" result="effect1_dropShadow_0_1"/>
<feBlend mode="normal" in="SourceGraphic" in2="effect1_dropShadow_0_1" result="shape"/>
</filter>
<filter id="filter4_d_0_1" x="483.925" y="481.628" width="237.921" height="107.699" filterUnits="userSpaceOnUse" color-interpolation-filters="sRGB">
<feFlood flood-opacity="0" result="BackgroundImageFix"/>
<feColorMatrix in="SourceAlpha" type="matrix" values="0 0 0 0 0 0 0 0 0 0 0 0 0 0 0 0 0 0 127 0" result="hardAlpha"/>
<feOffset dy="1"/>
<feGaussianBlur stdDeviation="1"/>
<feComposite in2="hardAlpha" operator="out"/>
<feColorMatrix type="matrix" values="0 0 0 0 0 0 0 0 0 0 0 0 0 0 0 0 0 0 0.25 0"/>
<feBlend mode="normal" in2="BackgroundImageFix" result="effect1_dropShadow_0_1"/>
<feBlend mode="normal" in="SourceGraphic" in2="effect1_dropShadow_0_1" result="shape"/>
</filter>
<filter id="filter5_d_0_1" x="717.434" y="546.978" width="65.013" height="62.7878" filterUnits="userSpaceOnUse" color-interpolation-filters="sRGB">
<feFlood flood-opacity="0" result="BackgroundImageFix"/>
<feColorMatrix in="SourceAlpha" type="matrix" values="0 0 0 0 0 0 0 0 0 0 0 0 0 0 0 0 0 0 127 0" result="hardAlpha"/>
<feOffset dy="4"/>
<feGaussianBlur stdDeviation="2"/>
<feComposite in2="hardAlpha" operator="out"/>
<feColorMatrix type="matrix" values="0 0 0 0 0 0 0 0 0 0 0 0 0 0 0 0 0 0 0.25 0"/>
<feBlend mode="normal" in2="BackgroundImageFix" result="effect1_dropShadow_0_1"/>
<feBlend mode="normal" in="SourceGraphic" in2="effect1_dropShadow_0_1" result="shape"/>
</filter>
</defs>
</svg>
